<?xml version="1.0" encoding="utf-8"?>
<!-- Generator: Adobe Illustrator 21.1.0, SVG Export Plug-In . SVG Version: 6.00 Build 0)  -->
<svg version="1.1" id="Layer_1" xmlns="http://www.w3.org/2000/svg" xmlns:xlink="http://www.w3.org/1999/xlink" x="0px" y="0px"
	 viewBox="0 0 359.4 394.4" style="enable-background:new 0 0 359.4 394.4;" xml:space="preserve">
<style type="text/css">
	.st0{fill:#F1F0F0;}
	.st1{fill:none;stroke:#481E5D;stroke-width:2;stroke-miterlimit:10;}
	.st2{fill:#481E5D;stroke:#481E5D;stroke-miterlimit:10;}
	.st3{fill:#481E5D;}
	.st4{font-family:'Roboto-Regular';}
	.st5{font-size:12px;}
	.st6{font-family:'Roboto-Light';}
	.st7{fill:none;stroke:#481E5D;stroke-miterlimit:10;}
	.st8{font-size:16.85px;}
	.st9{fill:#231F20;}
	.st10{font-size:8px;}
</style>
<title>chatMockup</title>
<g>
	<path class="st0" d="M1,6c0-2.7,2.2-5,5-5h347.4c2.8,0,5,2.2,5,5v382.4c0,2.8-2.2,5-5,5H6c-2.8,0-5-2.2-5-5V6z"/>
	<path class="st1" d="M1,6c0-2.7,2.2-5,5-5h347.4c2.8,0,5,2.2,5,5v382.4c0,2.8-2.2,5-5,5H6c-2.8,0-5-2.2-5-5V6z"/>
</g>
<polygon class="st2" points="317.4,353.8 342.9,366.1 317.4,377.3 "/>
<text transform="matrix(1 0 0 1 48.26 25.92)" class="st3 st4 st5">G</text>
<text transform="matrix(1 0 0 1 56.39 25.92)" class="st3 st4 st5">r</text>
<text transform="matrix(1 0 0 1 60.47 25.92)" class="st3 st4 st5">oup</text>
<text transform="matrix(1 0 0 1 48.26 48.12)" class="st3 st6 st5">Alex</text>
<text transform="matrix(1 0 0 1 48.26 71)" class="st3 st6 st5">Michelle</text>
<text transform="matrix(1 0 0 1 48.26 92.43)" class="st3 st6 st5">Leggy</text>
<text transform="matrix(1 0 0 1 48.26 114.88)" class="st3 st6 st5">Krista/Beth</text>
<line class="st1" x1="117.6" y1="1" x2="117.6" y2="393.4"/>
<line class="st1" x1="117.6" y1="331.6" x2="358.4" y2="331.6"/>
<line class="st1" x1="36.9" y1="1" x2="36.9" y2="393.4"/>
<g>
	<path class="st3" d="M1,6c0-2.8,2.3-5,5-5h25.9c2.8,0,5,2.3,5,5v382.3c0,2.8-2.3,5-5,5H6c-2.8,0-5-2.3-5-5V6z"/>
	<path class="st7" d="M1,6c0-2.8,2.3-5,5-5h25.9c2.8,0,5,2.3,5,5v382.3c0,2.8-2.3,5-5,5H6c-2.8,0-5-2.3-5-5V6z"/>
</g>
<text transform="matrix(1.01 0 0 1 13.73 26.8802)" class="st0 st4 st8">Y</text>
<text transform="matrix(1.01 0 0 1 13.3999 62.8802)" class="st0 st6 st8">R</text>
<text transform="matrix(1.01 0 0 1 13.3999 97.8802)" class="st0 st6 st8">P</text>
<text transform="matrix(1 0 0 1 142.59 27.52)" class="st9 st4 st10">Lo</text>
<text transform="matrix(1 0 0 1 151.54 27.52)" class="st9 st4 st10">r</text>
<text transform="matrix(1 0 0 1 154.26 27.52)" class="st9 st4 st10">em ipsum dolor sit amet, consectetuer adipiscing elit, </text>
<text transform="matrix(1 0 0 1 142.59 37.12)" class="st9 st4 st10">sed diam nonummy nibh euismod tincidunt ut lao</text>
<text transform="matrix(1 0 0 1 320.25 37.12)" class="st9 st4 st10">r</text>
<text transform="matrix(1 0 0 1 322.98 37.12)" class="st9 st4 st10">eet</text>
<text transform="matrix(1 0 0 1 142.59 68.52)" class="st9 st4 st10">Lo</text>
<text transform="matrix(1 0 0 1 151.54 68.52)" class="st9 st4 st10">r</text>
<text transform="matrix(1 0 0 1 154.26 68.52)" class="st9 st4 st10">em ipsum dolor sit amet, consectetuer adipiscing elit, </text>
<text transform="matrix(1 0 0 1 142.59 78.12)" class="st9 st4 st10">sed diam nonummy nibh euismod tincidunt ut lao</text>
<text transform="matrix(1 0 0 1 320.25 78.12)" class="st9 st4 st10">r</text>
<text transform="matrix(1 0 0 1 322.98 78.12)" class="st9 st4 st10">eet </text>
<text transform="matrix(1 0 0 1 142.59 87.72)" class="st9 st4 st10">dolo</text>
<text transform="matrix(1 0 0 1 158.25 87.72)" class="st9 st4 st10">r</text>
<text transform="matrix(1 0 0 1 160.97 87.72)" class="st9 st4 st10">e magna aliquam erat </text>
<text transform="matrix(1 0 0 1 240.99 87.72)" class="st9 st4 st10">v</text>
<text transform="matrix(1 0 0 1 244.96 87.72)" class="st9 st4 st10">olutpat. Ut wisi enim ad </text>
<text transform="matrix(1 0 0 1 142.59 97.32)" class="st9 st4 st10">minim </text>
<text transform="matrix(1 0 0 1 167.14 97.32)" class="st9 st4 st10">v</text>
<text transform="matrix(1 0 0 1 171.11 97.32)" class="st9 st4 st10">eniam, quis nostrud e</text>
<text transform="matrix(1 0 0 1 248.14 97.32)" class="st9 st4 st10">x</text>
<text transform="matrix(1 0 0 1 252.09 97.32)" class="st9 st4 st10">e</text>
<text transform="matrix(1 0 0 1 256.28 97.32)" class="st9 st4 st10">r</text>
<text transform="matrix(1 0 0 1 259 97.32)" class="st9 st4 st10">ci tation ullamcorper </text>
<text transform="matrix(1 0 0 1 142.59 106.92)" class="st9 st4 st10">suscipit lobo</text>
<text transform="matrix(1 0 0 1 188.61 106.92)" class="st9 st4 st10">r</text>
<text transform="matrix(1 0 0 1 191.48 106.92)" class="st9 st4 st10">tis nisl ut aliquip ex ea commodo conse</text>
<text transform="matrix(1 0 0 1 333.19 106.92)" class="st9 st4 st10">-</text>
<text transform="matrix(1 0 0 1 142.59 116.52)" class="st9 st4 st10">quat. Duis autem </text>
<text transform="matrix(1 0 0 1 205.87 116.52)" class="st9 st4 st10">v</text>
<text transform="matrix(1 0 0 1 209.84 116.52)" class="st9 st4 st10">el eum iriu</text>
<text transform="matrix(1 0 0 1 247.13 116.52)" class="st9 st4 st10">r</text>
<text transform="matrix(1 0 0 1 249.85 116.52)" class="st9 st4 st10">e dolor in hend</text>
<text transform="matrix(1 0 0 1 302.85 116.52)" class="st9 st4 st10">r</text>
<text transform="matrix(1 0 0 1 305.58 116.52)" class="st9 st4 st10">erit in</text>
<text transform="matrix(1 0 0 1 142.59 144.52)" class="st9 st4 st10">Lo</text>
<text transform="matrix(1 0 0 1 151.54 144.52)" class="st9 st4 st10">r</text>
<text transform="matrix(1 0 0 1 154.26 144.52)" class="st9 st4 st10">em ipsum dolor sit amet, consectetuer adipiscing elit,</text>
<text transform="matrix(1 0 0 1 130.59 354.84)" class="st9 st4 st10">Lo</text>
<text transform="matrix(1 0 0 1 139.54 354.84)" class="st9 st4 st10">r</text>
<text transform="matrix(1 0 0 1 142.26 354.84)" class="st9 st4 st10">em ipsum dolor sit amet, consectetuer </text>
<text transform="matrix(1 0 0 1 130.59 364.44)" class="st9 st4 st10">adipiscing elit, v</text>
<circle class="st3" cx="131.3" cy="24.8" r="3.3"/>
<path class="st3" d="M126,35.4c0,0,0.8-7,5.3-7c4.4,0,5.3,7,5.3,7h-10.9"/>
<circle class="st3" cx="130.7" cy="67.4" r="3.3"/>
<path class="st3" d="M125.5,78c0,0,0.8-7,5.3-7c4.4,0,5.3,7,5.3,7h-10.9"/>
<circle class="st3" cx="130.9" cy="140.8" r="3.3"/>
<path class="st3" d="M125.6,151.4c0,0,0.8-7,5.3-7c4.4,0,5.3,7,5.3,7h-11"/>
</svg>
