<svg id="Layer_1" data-name="Layer 1" xmlns="http://www.w3.org/2000/svg" viewBox="0 0 118.98 117.92"><defs><style>.cls-1{fill:#49075e;}</style></defs><title>hand</title><path class="cls-1" d="M38.52,41.78C43.78,36,48.86,30,54.34,24.42c7.84-8,12.69-7.68,19.71.69C85,23.23,88.44,26.37,88.4,38a3.41,3.41,0,0,0,.78,2.09c7.23,8.17,7.33,10.51.66,18.51,8,7.18,8.13,12.06.32,19.87C80.51,88.16,71,98,61.15,107.42c-10,9.63-22,12.85-35.46,8.77-13.16-4-21.48-13-24.73-26.32a35.11,35.11,0,0,1,2-22Q9.17,52.63,15.5,37.44c3.17-7.64,6.84-10.36,12.7-9.44,5.43.85,8.06,4.65,8.67,12.5ZM23.12,63.23l-1.48-.77c.45-1.48.8-3,1.36-4.45,2.12-5.42,4.27-10.83,6.48-16.21,1.24-3,2.08-6.08-1.77-7.54-3.57-1.35-5,1.42-6.12,4.21Q15.34,53.69,9,68.9c-6.12,14.81-2.08,29.65,10.36,38s27.52,6.31,39-5.17Q72.54,87.6,86.61,73.4c.7-.71,1.89-1.36,2-2.16.27-1.93.78-4.63-.22-5.69s-3.76-.57-5.6-.13c-1.11.26-1.94,1.73-2.88,2.67-6.13,6.12-12.19,12.32-18.47,18.28-.9.85-2.86.59-4.33.84a19.8,19.8,0,0,1,.31-4.77c.3-1,1.53-1.7,2.36-2.52q12.58-12.51,25.16-25c2.35-2.34,5.66-4.9,2.42-8.34-3.69-3.92-6.19.05-8.57,2.4-7.59,7.49-15,15.16-22.73,22.5-1.28,1.22-3.85,1.08-5.82,1.57.58-1.95.58-4.46,1.83-5.75C61.56,57.46,71.29,47.86,81,38.22c2.08-2.07,3.56-4.3,1-6.85S77.15,30,75,32.14Q67,40.08,59,48c-4.73,4.69-9.36,9.5-14.28,14-1,.92-3.11.65-4.7.92.21-1.61.12-3.34.72-4.78.47-1.14,1.79-1.92,2.73-2.87C51,47.69,58.68,40.25,66,32.52a7.21,7.21,0,0,0,1.4-5.64c-.21-1-2.83-2.25-4.29-2.17s-2.81,1.6-4,2.75Q43,43.48,27,59.59C25.73,60.84,24.41,62,23.12,63.23Z"/><path class="cls-1" d="M67.29,1.84C52.28,2.62,39.11,7.65,28.17,19c-.52-4.59,2.46-7.68,10.6-12.36C49.19.59,62.8-2.07,67.29,1.84Z"/><path class="cls-1" d="M118,54.68c4.27,11.71-6,36.46-17.2,41.47,4.27-7,8.75-12.82,11.44-19.33S115.95,62.87,118,54.68Z"/><path class="cls-1" d="M108.29,54.57c5.08,9-4.21,32.22-13.73,34.62,2.27-3.35,4.83-6.53,6.73-10.08A59.23,59.23,0,0,0,106,67.68C107.07,63.8,107.42,59.71,108.29,54.57Z"/><path class="cls-1" d="M34.07,24.32C38,14.76,57.61,6.22,67.34,9.94c-5.85,1.63-12,2.66-17.47,5.05S39.31,21.15,34.07,24.32Z"/></svg>