<svg id="Layer_1" data-name="Layer 1" xmlns="http://www.w3.org/2000/svg" viewBox="0 0 171.23 155.1"><defs><style>.cls-1{fill:#e1d4e5;}.cls-1,.cls-2{stroke:#f1f0f0;}.cls-1,.cls-2,.cls-3{stroke-miterlimit:10;stroke-width:2px;}.cls-2,.cls-4{fill:#481e5d;}.cls-3{fill:none;stroke:#481e5d;}.cls-4{font-size:50px;font-family:SteelfishRg-Regular, Steelfish;}</style></defs><title>logo_light_purple_alone</title><circle class="cls-1" cx="49.19" cy="34.15" r="15.41"/><path class="cls-1" d="M33.47,85.56S37.2,53.39,57.69,53.39,82.25,85.56,82.25,85.56H31.78" transform="translate(-8.5 -2.49)"/><circle class="cls-1" cx="123.4" cy="34.15" r="15.41"/><path class="cls-1" d="M107.68,85.56s3.73-32.18,24.22-32.18,24.56,32.18,24.56,32.18H106" transform="translate(-8.5 -2.49)"/><circle class="cls-2" cx="85.13" cy="36.2" r="20.59"/><path class="cls-2" d="M61.28,104.06s5-43,32.35-43,32.81,43,32.81,43H59" transform="translate(-8.5 -2.49)"/><path class="cls-3" d="M9.5,105.06S8,2.73,95.42,3.5,178.7,105.06,178.7,105.06" transform="translate(-8.5 -2.49)"/><text class="cls-4" transform="translate(33.78 147.65) scale(1.02 1)">ClubHub</text></svg>