<svg id="Layer_1" data-name="Layer 1" xmlns="http://www.w3.org/2000/svg" viewBox="0 0 171.23 228.39"><defs><style>.cls-1,.cls-5{fill:#e1d4e5;}.cls-1,.cls-2{stroke:#f1f0f0;}.cls-1,.cls-2,.cls-3{stroke-miterlimit:10;stroke-width:2px;}.cls-2,.cls-4{fill:#481e5d;}.cls-3{fill:none;stroke:#481e5d;}.cls-4{font-size:50px;font-family:SteelfishRg-Regular, Steelfish;}</style></defs><title>logo_light_purple</title><circle class="cls-1" cx="49.19" cy="34.15" r="15.41"/><path class="cls-1" d="M33.47,85.56S37.2,53.39,57.69,53.39,82.25,85.56,82.25,85.56H31.78" transform="translate(-8.5 -2.49)"/><circle class="cls-1" cx="123.4" cy="34.15" r="15.41"/><path class="cls-1" d="M107.68,85.56s3.73-32.18,24.22-32.18,24.56,32.18,24.56,32.18H106" transform="translate(-8.5 -2.49)"/><circle class="cls-2" cx="85.13" cy="36.2" r="20.59"/><path class="cls-2" d="M61.28,104.06s5-43,32.35-43,32.81,43,32.81,43H59" transform="translate(-8.5 -2.49)"/><path class="cls-3" d="M9.5,105.06S8,2.73,95.42,3.5,178.7,105.06,178.7,105.06" transform="translate(-8.5 -2.49)"/><text class="cls-4" transform="translate(33.78 147.65) scale(1.02 1)">ClubHub</text><path class="cls-5" d="M95.4,230.33l30.67-30.63a1.85,1.85,0,1,0-2.61-2.61L94.12,226.43,64.78,197.09a1.83,1.83,0,1,0-2.61,2.57l30.67,30.67A1.77,1.77,0,0,0,95.4,230.33Z" transform="translate(-8.5 -2.49)"/></svg>