<?xml version="1.0" encoding="utf-8"?>
<!-- Generator: Adobe Illustrator 21.1.0, SVG Export Plug-In . SVG Version: 6.00 Build 0)  -->
<svg version="1.1" id="Capa_1" xmlns="http://www.w3.org/2000/svg" xmlns:xlink="http://www.w3.org/1999/xlink" x="0px" y="0px"
	 viewBox="0 0 512 512" style="enable-background:new 0 0 512 512;" xml:space="preserve">
<style type="text/css">
	.st0{fill:#49075E;}
</style>
<g>
	<g>
		<path class="st0" d="M114,199c0,42.3,13.2,81.4,35.6,113.7L2.1,460.2c-2.6,2.6-2.8,7.2,0,9.9l39.8,39.8c2.8,2.8,7.2,2.7,9.9,0
			l147.6-147.6l0,0C231.5,384.8,270.7,398,313,398c109.9,0,199-89.1,199-199S422.9,0,313,0C203.1,0,114,89.1,114,199z M160.8,199
			c0-84,68.1-152.2,152.2-152.2S465.2,114.9,465.2,199S397,351.2,313,351.2S160.8,283,160.8,199z"/>
	</g>
</g>
</svg>
